<?xml version="1.0" standalone="yes"?>

<svg version="1.1" viewBox="0.0 0.0 960.0 720.0" fill="none" stroke="none" stroke-linecap="square" stroke-miterlimit="10" xmlns="http://www.w3.org/2000/svg" xmlns:xlink="http://www.w3.org/1999/xlink"><clipPath id="p.0"><path d="m0 0l960.0 0l0 720.0l-960.0 0l0 -720.0z" clip-rule="nonzero"></path></clipPath><g clip-path="url(#p.0)"><path fill="#ffffff" d="m0 0l960.0 0l0 720.0l-960.0 0z" fill-rule="nonzero"></path><path fill="#000000" fill-opacity="0.0" d="m72.0 221.64021l816.0 0l0 162.35957l-816.0 0z" fill-rule="nonzero"></path><path fill="#000000" d="m217.40625 359.4398l-10.9375 -45.8125l9.46875 0l6.90625 31.46875l8.375 -31.46875l11.0 0l8.03125 32.0l7.03125 -32.0l9.3125 0l-11.125 45.8125l-9.8125 0l-9.125 -34.25l-9.09375 34.25l-10.03125 0zm62.59375 -45.8125l0 16.84375q4.25 -4.96875 10.15625 -4.96875q3.03125 0 5.46875 1.125q2.4375 1.125 3.671875 2.875q1.234375 1.75 1.6875 3.875q0.453125 2.125 0.453125 6.59375l0 19.46875l-8.78125 0l0 -17.53125q0 -5.21875 -0.5 -6.625q-0.5 -1.40625 -1.765625 -2.234375q-1.265625 -0.828125 -3.171875 -0.828125q-2.1875 0 -3.90625 1.0625q-1.71875 1.0625 -2.515625 3.203125q-0.796875 2.140625 -0.796875 6.328125l0 16.625l-8.78125 0l0 -45.8125l8.78125 0zm36.90625 22.75l-7.96875 -1.4375q1.34375 -4.8125 4.625 -7.125q3.28125 -2.3125 9.75 -2.3125q5.875 0 8.75 1.390625q2.875 1.390625 4.046875 3.53125q1.171875 2.140625 1.171875 7.859375l-0.09375 10.25q0 4.375 0.421875 6.453125q0.421875 2.078125 1.578125 4.453125l-8.6875 0q-0.34375 -0.875 -0.84375 -2.59375q-0.21875 -0.78125 -0.3125 -1.03125q-2.25 2.1875 -4.8125 3.28125q-2.5625 1.09375 -5.46875 1.09375q-5.125 0 -8.078125 -2.78125q-2.953125 -2.78125 -2.953125 -7.03125q0 -2.8125 1.34375 -5.015625q1.34375 -2.203125 3.765625 -3.375q2.421875 -1.171875 6.984375 -2.046875q6.15625 -1.15625 8.53125 -2.15625l0 -0.875q0 -2.53125 -1.25 -3.609375q-1.25 -1.078125 -4.71875 -1.078125q-2.34375 0 -3.65625 0.921875q-1.3125 0.921875 -2.125 3.234375zm11.75 7.125q-1.6875 0.5625 -5.34375 1.34375q-3.65625 0.78125 -4.78125 1.53125q-1.71875 1.21875 -1.71875 3.09375q0 1.84375 1.375 3.1875q1.375 1.34375 3.5 1.34375q2.375 0 4.53125 -1.5625q1.59375 -1.1875 2.09375 -2.90625q0.34375 -1.125 0.34375 -4.28125l0 -1.75zm32.5 -17.25l0 7.0l-6.0 0l0 13.375q0 4.0625 0.171875 4.734375q0.171875 0.671875 0.78125 1.109375q0.609375 0.4375 1.484375 0.4375q1.21875 0 3.53125 -0.84375l0.75 6.8125q-3.0625 1.3125 -6.9375 1.3125q-2.375 0 -4.28125 -0.796875q-1.90625 -0.796875 -2.796875 -2.0625q-0.890625 -1.265625 -1.234375 -3.421875q-0.28125 -1.53125 -0.28125 -6.1875l0 -14.46875l-4.03125 0l0 -7.0l4.03125 0l0 -6.59375l8.8125 -5.125l0 11.71875l6.0 0zm23.875 -4.5l0 -8.125l8.78125 0l0 8.125l-8.78125 0zm0 37.6875l0 -33.1875l8.78125 0l0 33.1875l-8.78125 0zm14.6875 -9.46875l8.8125 -1.34375q0.5625 2.5625 2.28125 3.890625q1.71875 1.328125 4.8125 1.328125q3.40625 0 5.125 -1.25q1.15625 -0.875 1.15625 -2.34375q0 -1.0 -0.625 -1.65625q-0.65625 -0.625 -2.9375 -1.15625q-10.625 -2.34375 -13.46875 -4.28125q-3.9375 -2.6875 -3.9375 -7.46875q0 -4.3125 3.40625 -7.25q3.40625 -2.9375 10.5625 -2.9375q6.8125 0 10.125 2.21875q3.3125 2.21875 4.5625 6.5625l-8.28125 1.53125q-0.53125 -1.9375 -2.015625 -2.96875q-1.484375 -1.03125 -4.234375 -1.03125q-3.46875 0 -4.96875 0.96875q-1.0 0.6875 -1.0 1.78125q0 0.9375 0.875 1.59375q1.1875 0.875 8.203125 2.46875q7.015625 1.59375 9.796875 3.90625q2.75 2.34375 2.75 6.53125q0 4.5625 -3.8125 7.84375q-3.8125 3.28125 -11.28125 3.28125q-6.78125 0 -10.734375 -2.75q-3.953125 -2.75 -5.171875 -7.46875zm86.90625 9.46875l-8.15625 0l0 -4.875q-2.03125 2.84375 -4.796875 4.234375q-2.765625 1.390625 -5.578125 1.390625q-5.71875 0 -9.796875 -4.609375q-4.078125 -4.609375 -4.078125 -12.859375q0 -8.4375 3.96875 -12.828125q3.96875 -4.390625 10.03125 -4.390625q5.5625 0 9.625 4.625l0 -16.5l8.78125 0l0 45.8125zm-23.4375 -17.3125q0 5.3125 1.46875 7.6875q2.125 3.4375 5.9375 3.4375q3.03125 0 5.15625 -2.578125q2.125 -2.578125 2.125 -7.703125q0 -5.71875 -2.0625 -8.234375q-2.0625 -2.515625 -5.28125 -2.515625q-3.125 0 -5.234375 2.484375q-2.109375 2.484375 -2.109375 7.421875zm51.3125 6.75l8.75 1.46875q-1.6875 4.8125 -5.328125 7.328125q-3.640625 2.515625 -9.109375 2.515625q-8.65625 0 -12.8125 -5.65625q-3.28125 -4.53125 -3.28125 -11.4375q0 -8.25 4.3125 -12.921875q4.3125 -4.671875 10.90625 -4.671875q7.40625 0 11.6875 4.890625q4.28125 4.890625 4.09375 14.984375l-22.0 0q0.09375 3.90625 2.125 6.078125q2.03125 2.171875 5.0625 2.171875q2.0625 0 3.46875 -1.125q1.40625 -1.125 2.125 -3.625zm0.5 -8.875q-0.09375 -3.8125 -1.96875 -5.796875q-1.875 -1.984375 -4.5625 -1.984375q-2.875 0 -4.75 2.09375q-1.875 2.09375 -1.84375 5.6875l13.125 0zm33.59375 19.4375l0 -45.8125l13.84375 0l8.3125 31.25l8.21875 -31.25l13.875 0l0 45.8125l-8.59375 0l0 -36.0625l-9.09375 36.0625l-8.90625 0l-9.0625 -36.0625l0 36.0625l-8.59375 0zm51.34375 -17.0625q0 -4.375 2.15625 -8.46875q2.15625 -4.09375 6.109375 -6.25q3.953125 -2.15625 8.828125 -2.15625q7.53125 0 12.34375 4.890625q4.8125 4.890625 4.8125 12.359375q0 7.53125 -4.859375 12.484375q-4.859375 4.953125 -12.234375 4.953125q-4.5625 0 -8.703125 -2.0625q-4.140625 -2.0625 -6.296875 -6.046875q-2.15625 -3.984375 -2.15625 -9.703125zm9.0 0.46875q0 4.9375 2.34375 7.5625q2.34375 2.625 5.78125 2.625q3.4375 0 5.765625 -2.625q2.328125 -2.625 2.328125 -7.625q0 -4.875 -2.328125 -7.5q-2.328125 -2.625 -5.765625 -2.625q-3.4375 0 -5.78125 2.625q-2.34375 2.625 -2.34375 7.5625zm31.75 16.59375l0 -45.8125l8.78125 0l0 16.5q4.0625 -4.625 9.625 -4.625q6.0625 0 10.03125 4.390625q3.96875 4.390625 3.96875 12.609375q0 8.5 -4.046875 13.09375q-4.046875 4.59375 -9.828125 4.59375q-2.84375 0 -5.609375 -1.421875q-2.765625 -1.421875 -4.765625 -4.203125l0 4.875l-8.15625 0zm8.71875 -17.3125q0 5.15625 1.625 7.625q2.28125 3.5 6.0625 3.5q2.90625 0 4.953125 -2.484375q2.046875 -2.484375 2.046875 -7.828125q0 -5.6875 -2.0625 -8.203125q-2.0625 -2.515625 -5.28125 -2.515625q-3.15625 0 -5.25 2.453125q-2.09375 2.453125 -2.09375 7.453125zm28.71875 0.25q0 -4.375 2.15625 -8.46875q2.15625 -4.09375 6.109375 -6.25q3.953125 -2.15625 8.828125 -2.15625q7.53125 0 12.34375 4.890625q4.8125 4.890625 4.8125 12.359375q0 7.53125 -4.859375 12.484375q-4.859375 4.953125 -12.234375 4.953125q-4.5625 0 -8.703125 -2.0625q-4.140625 -2.0625 -6.296875 -6.046875q-2.15625 -3.984375 -2.15625 -9.703125zm9.0 0.46875q0 4.9375 2.34375 7.5625q2.34375 2.625 5.78125 2.625q3.4375 0 5.765625 -2.625q2.328125 -2.625 2.328125 -7.625q0 -4.875 -2.328125 -7.5q-2.328125 -2.625 -5.765625 -2.625q-3.4375 0 -5.78125 2.625q-2.34375 2.625 -2.34375 7.5625zm51.0 4.78125l-7.96875 0q-0.03125 -1.71875 -0.03125 -2.09375q0 -3.875 1.28125 -6.375q1.28125 -2.5 5.125 -5.625q3.84375 -3.125 4.59375 -4.09375q1.15625 -1.53125 1.15625 -3.375q0 -2.5625 -2.046875 -4.390625q-2.046875 -1.828125 -5.515625 -1.828125q-3.34375 0 -5.59375 1.90625q-2.25 1.90625 -3.09375 5.8125l-8.0625 -1.0q0.34375 -5.59375 4.765625 -9.5q4.421875 -3.90625 11.609375 -3.90625q7.5625 0 12.03125 3.953125q4.46875 3.953125 4.46875 9.203125q0 2.90625 -1.640625 5.5q-1.640625 2.59375 -7.015625 7.0625q-2.78125 2.3125 -3.453125 3.71875q-0.671875 1.40625 -0.609375 5.03125zm-7.96875 11.8125l0 -8.78125l8.78125 0l0 8.78125l-8.78125 0z" fill-rule="nonzero"></path><path fill="#000000" fill-opacity="0.0" d="m72.0 397.55777l816.0 0l0 109.84958l-816.0 0z" fill-rule="nonzero"></path></g></svg>

