<svg width="640" height="480" xmlns="http://www.w3.org/2000/svg">
 <!-- Created with SVG-edit - http://svg-edit.googlecode.com/ -->
 <g>
  <title>Layer 1</title>
  <path id="svg_4" d="m256.54129,224.954193q39.836334,27.359207 79.582977,0m-70.949463,-54.036087c0,-4.228134 3.429565,-7.656601 7.657745,-7.656601c4.228058,0 7.657745,3.428467 7.657745,7.656601c0,4.228134 -3.429688,7.655502 -7.657745,7.655502c-4.22818,0 -7.657745,-3.427368 -7.657745,-7.655502m47.094849,0c0,-4.228134 3.429535,-7.656601 7.655426,-7.656601c4.230377,0 7.657745,3.428467 7.657745,7.656601c0,4.228134 -3.427368,7.655502 -7.657745,7.655502c-4.225891,0 -7.655426,-3.427368 -7.655426,-7.655502m-89.389648,21.981842l0,0c0,-40.592285 32.907669,-73.499947 73.49762,-73.499947c40.594513,0 73.502289,32.907661 73.502289,73.499947c0,40.592422 -32.907776,73.500046 -73.502289,73.500046c-40.589951,0 -73.49762,-32.907623 -73.49762,-73.500046zm0,0l0,0c0,-40.592285 32.907669,-73.499947 73.49762,-73.499947c40.594513,0 73.502289,32.907661 73.502289,73.499947c0,40.592422 -32.907776,73.500046 -73.502289,73.500046c-40.589951,0 -73.49762,-32.907623 -73.49762,-73.500046z" stroke-linecap="null" stroke-linejoin="null" stroke-dasharray="null" stroke-width="5" stroke="#000000" fill="#ff7f00"/>
 </g>
</svg>