<?xml version="1.0" standalone="yes"?>

<svg version="1.1" viewBox="0.0 0.0 968.0 423.0" fill="none" stroke="none" stroke-linecap="square" stroke-miterlimit="10" xmlns="http://www.w3.org/2000/svg" xmlns:xlink="http://www.w3.org/1999/xlink"><clipPath id="p.0"><path d="m0 0l968.0 0l0 423.0l-968.0 0l0 -423.0z" clip-rule="nonzero"></path></clipPath><g clip-path="url(#p.0)"><path fill="#000000" fill-opacity="0.0" d="m0 0l968.90814 0l0 423.70865l-968.90814 0z" fill-rule="nonzero"></path><path fill="#d9d9d9" d="m0 70.620834l0 0c0 -39.00281 31.618023 -70.620834 70.620834 -70.620834l827.6717 0c18.729797 0 36.692505 7.4403877 49.936462 20.684362c13.2439575 13.243975 20.684326 31.20666 20.684326 49.93647l0 282.47485c0 39.002808 -31.617981 70.62082 -70.62079 70.62082l-827.6717 0c-39.00281 0 -70.620834 -31.618011 -70.620834 -70.62082z" fill-rule="nonzero"></path><path fill="#000000" fill-opacity="0.0" d="m-377.14172 149.06824l384.0 0l0 48.0l-384.0 0z" fill-rule="nonzero"></path><path fill="#000000" d="m24.942257 151.29921l0 0c0 -27.98822 22.688938 -50.677162 50.677166 -50.677162l817.6693 0c13.44043 0 26.330322 5.3391876 35.834167 14.842995c9.503784 9.503815 14.842957 22.393753 14.842957 35.834167l0 202.70866c0 27.98822 -22.688904 50.677155 -50.677124 50.677155l-817.6693 0l0 0c-27.988228 0 -50.677166 -22.688934 -50.677166 -50.677155z" fill-rule="nonzero"></path><path stroke="#000000" stroke-width="2.0" stroke-linejoin="round" stroke-linecap="butt" d="m24.942257 151.29921l0 0c0 -27.98822 22.688938 -50.677162 50.677166 -50.677162l817.6693 0c13.44043 0 26.330322 5.3391876 35.834167 14.842995c9.503784 9.503815 14.842957 22.393753 14.842957 35.834167l0 202.70866c0 27.98822 -22.688904 50.677155 -50.677124 50.677155l-817.6693 0l0 0c-27.988228 0 -50.677166 -22.688934 -50.677166 -50.677155z" fill-rule="nonzero"></path><path fill="#cccccc" d="m139.72441 152.6433l0 0c0 -7.134903 5.7839813 -12.918884 12.918884 -12.918884l51.674026 0l0 0c3.4263 0 6.7122803 1.3610992 9.13504 3.7838593c2.42276 2.42276 3.7838593 5.708725 3.7838593 9.135025l0 200.0205c0 7.134918 -5.7839813 12.918884 -12.9189 12.918884l-51.674026 0c-7.134903 0 -12.918884 -5.783966 -12.918884 -12.918884z" fill-rule="nonzero"></path><path fill="#cccccc" d="m278.49057 213.89764l0 0c7.1348877 0 12.918884 5.7839813 12.918884 12.918884l0 51.67401l0 0c0 3.4263306 -1.3611145 6.7122803 -3.7838745 9.13504c-2.42276 2.42276 -5.7087097 3.7838745 -9.13501 3.7838745l-200.02051 0c-7.1349106 0 -12.9189 -5.7839966 -12.9189 -12.918915l0 -51.67401c0 -7.134903 5.783989 -12.918884 12.9189 -12.918884z" fill-rule="nonzero"></path><path fill="#b7b7b7" d="m371.52493 88.95292l0 0c0 -4.418373 3.581787 -8.00016 8.000153 -8.00016l209.85797 0c2.1217651 0 4.156616 0.842865 5.6569824 2.343193c1.5003052 1.5003204 2.3432007 3.5351868 2.3432007 5.656967l0 31.99968c0 4.4183655 -3.5818481 8.00016 -8.000183 8.00016l-209.85797 0c-4.4183655 0 -8.000153 -3.5817947 -8.000153 -8.00016z" fill-rule="nonzero"></path><path fill="#efefef" d="m371.52493 298.21286l0 0c0 -7.134918 5.7839966 -12.918884 12.918884 -12.918884l200.02048 0c3.4263306 0 6.7122803 1.361084 9.135071 3.783844c2.4227295 2.42276 3.7838745 5.70874 3.7838745 9.13504l0 51.67401c0 7.134918 -5.7839966 12.918915 -12.918945 12.918915l-200.02048 0c-7.1348877 0 -12.918884 -5.7839966 -12.918884 -12.918915z" fill-rule="nonzero"></path><path fill="#b7b7b7" d="m371.52493 157.0684l0 0c0 -4.4183655 3.581787 -8.000168 8.000153 -8.000168l209.85797 0c2.1217651 0 4.156616 0.84288025 5.6569824 2.3432007c1.5003052 1.5003204 2.3432007 3.5351868 2.3432007 5.656967l0 31.99968c0 4.4183655 -3.5818481 8.000153 -8.000183 8.000153l-209.85797 0c-4.4183655 0 -8.000153 -3.581787 -8.000153 -8.000153z" fill-rule="nonzero"></path><path fill="#b7b7b7" d="m371.52493 225.18388l0 0c0 -4.4183655 3.581787 -8.000153 8.000153 -8.000153l209.85797 0c2.1217651 0 4.156616 0.842865 5.6569824 2.3431854c1.5003052 1.5003204 2.3432007 3.535202 2.3432007 5.656967l0 31.99968c0 4.4183655 -3.5818481 8.000153 -8.000183 8.000153l-209.85797 0c-4.4183655 0 -8.000153 -3.581787 -8.000153 -8.000153z" fill-rule="nonzero"></path><path fill="#b7b7b7" d="m371.52493 388.46994l0 0c0 -3.0673523 2.4865723 -5.5539246 5.5539246 -5.5539246l214.75043 0c1.4730225 0 2.8856812 0.58514404 3.927246 1.626709c1.041565 1.041565 1.626709 2.4542236 1.626709 3.9272156l0 22.214996c0 3.0673218 -2.4866333 5.5539246 -5.553955 5.5539246l-214.75043 0c-3.0673523 0 -5.5539246 -2.4866028 -5.5539246 -5.5539246z" fill-rule="nonzero"></path><path fill="#d9d9d9" d="m632.0315 281.79822l0 0c0 -9.175934 7.4385986 -16.614502 16.614502 -16.614502l66.456055 0l0 0c4.406433 0 8.632385 1.7504578 11.74823 4.8663025c3.1157837 3.1158142 4.866272 7.3417664 4.866272 11.748199l0 66.456055c0 9.175934 -7.4385986 16.614502 -16.614502 16.614502l-66.456055 0c-9.175903 0 -16.614502 -7.438568 -16.614502 -16.614502z" fill-rule="nonzero"></path><path fill="#d9d9d9" d="m763.20996 281.79822l0 0c0 -9.175934 7.4385986 -16.614502 16.614502 -16.614502l66.456055 0l0 0c4.406433 0 8.632385 1.7504578 11.74823 4.8663025c3.1158447 3.1158142 4.866272 7.3417664 4.866272 11.748199l0 66.456055c0 9.175934 -7.4385986 16.614502 -16.614502 16.614502l-66.456055 0c-9.175903 0 -16.614502 -7.438568 -16.614502 -16.614502z" fill-rule="nonzero"></path><path fill="#000000" fill-opacity="0.0" d="m696.50397 357.58267l35.212585 0l0 33.322845l-35.212585 0z" fill-rule="nonzero"></path><path fill="#ff0000" d="m726.3946 380.37955q0 0.9375 -0.25 1.625q-0.25 0.6875 -0.6875 1.1875q-0.4375 0.5 -1.0625 0.8125q-0.609375 0.3125 -1.359375 0.5q-0.734375 0.171875 -1.578125 0.25q-0.84375 0.0625 -1.75 0.0625l-11.6875 0l0 -16.109375l11.484375 0q0.6875 0 1.375 0.0625q0.703125 0.0625 1.328125 0.21875q0.640625 0.15625 1.1875 0.4375q0.546875 0.28125 0.953125 0.75q0.40625 0.453125 0.625 1.09375q0.234375 0.640625 0.234375 1.515625q0 1.578125 -0.78125 2.5q-0.765625 0.921875 -2.4375 1.21875q1.171875 0.078125 2.015625 0.359375q0.84375 0.28125 1.359375 0.75q0.53125 0.46875 0.78125 1.15625q0.25 0.6875 0.25 1.609375zm-5.4375 -6.890625q0 -0.3125 -0.09375 -0.578125q-0.09375 -0.28125 -0.34375 -0.484375q-0.234375 -0.21875 -0.65625 -0.34375q-0.421875 -0.140625 -1.078125 -0.140625l-6.40625 0l0 3.03125l6.40625 0q0.65625 0 1.078125 -0.109375q0.421875 -0.125 0.65625 -0.328125q0.25 -0.203125 0.34375 -0.46875q0.09375 -0.28125 0.09375 -0.578125zm1.015625 6.375q0 -0.546875 -0.1875 -0.875q-0.1875 -0.34375 -0.59375 -0.515625q-0.390625 -0.1875 -1.03125 -0.234375q-0.625 -0.0625 -1.5 -0.0625l-6.28125 0l0 3.40625l6.28125 0q0.875 0 1.5 -0.0625q0.640625 -0.0625 1.03125 -0.25q0.40625 -0.1875 0.59375 -0.515625q0.1875 -0.328125 0.1875 -0.890625z" fill-rule="nonzero"></path><path fill="#000000" fill-opacity="0.0" d="m827.68243 357.58267l35.212585 0l0 33.322845l-35.212585 0z" fill-rule="nonzero"></path><path fill="#ff0000" d="m852.13556 381.77017l-8.96875 0l-1.515625 3.046875l-4.84375 0l8.421875 -16.109375l4.84375 0l8.4375 16.109375l-4.859375 0l-1.515625 -3.046875zm-7.40625 -3.140625l5.875 0l-2.921875 -5.9375l-2.953125 5.9375z" fill-rule="nonzero"></path><path fill="#000000" fill-opacity="0.0" d="m632.0315 139.72441l268.0 0l0 82.74016l-268.0 0z" fill-rule="nonzero"></path><path fill="#ff0000" d="m644.75024 157.19316l7.0625 0l18.421875 15.46875l0.015625 -15.46875l4.296875 0l0 29.03125l-7.0625 0l-18.4375 -15.40625l0 15.40625l-4.296875 0l0 -29.03125zm41.539062 6.453125q-1.453125 0 -2.5 -0.3125q-1.03125 -0.3125 -1.703125 -0.859375q-0.65625 -0.5625 -0.96875 -1.296875q-0.3125 -0.734375 -0.3125 -1.59375q0 -0.84375 0.3125 -1.578125q0.3125 -0.75 0.96875 -1.296875q0.671875 -0.5625 1.703125 -0.875q1.046875 -0.3125 2.5 -0.3125q1.46875 0 2.5 0.3125q1.03125 0.3125 1.703125 0.875q0.671875 0.546875 0.984375 1.296875q0.3125 0.734375 0.3125 1.578125q0 0.859375 -0.3125 1.59375q-0.3125 0.734375 -0.984375 1.296875q-0.671875 0.546875 -1.703125 0.859375q-1.03125 0.3125 -2.5 0.3125zm-5.296875 3.21875l10.609375 0l0 19.359375l-10.609375 0l0 -19.359375zm16.074219 0l9.359375 0l0.9375 2.8125q2.0625 -1.578125 4.203125 -2.375q2.140625 -0.8125 4.5 -0.8125q1.359375 0 2.515625 0.453125q1.15625 0.453125 2.015625 1.390625q0.859375 0.9375 1.34375 2.421875q0.5 1.46875 0.5 3.515625l0 11.953125l-10.609375 0l0 -12.625q0 -1.015625 -0.453125 -1.484375q-0.4375 -0.46875 -1.296875 -0.46875q-0.578125 0 -1.265625 0.234375q-0.671875 0.234375 -1.140625 0.75l0 13.59375l-10.609375 0l0 -19.359375zm31.753906 3.21875l-2.1875 0l0 -3.21875l2.1875 0l0 -6.4375l10.609375 0l0 6.4375l5.09375 0l-1.984375 3.21875l-3.109375 0l0 8.78125q0 1.984375 0.890625 3.0625q0.890625 1.078125 2.546875 1.078125l-1.203125 2.671875q-1.015625 0.421875 -2.171875 0.671875q-1.140625 0.25 -2.640625 0.25q-2.109375 0 -3.640625 -0.53125q-1.515625 -0.546875 -2.5 -1.546875q-0.96875 -1.0 -1.4375 -2.4375q-0.453125 -1.453125 -0.453125 -3.265625l0 -8.734375zm17.566406 6.359375q0 -1.6875 0.515625 -3.0625q0.53125 -1.390625 1.453125 -2.5q0.9375 -1.109375 2.203125 -1.921875q1.28125 -0.828125 2.765625 -1.375q1.484375 -0.546875 3.09375 -0.8125q1.625 -0.28125 3.28125 -0.28125q2.1875 0 3.96875 0.453125q1.796875 0.4375 3.1875 1.203125q1.40625 0.75 2.421875 1.765625q1.03125 1.015625 1.703125 2.15625q0.671875 1.140625 1.0 2.359375q0.328125 1.203125 0.328125 2.359375l-14.765625 1.78125q0.421875 2.171875 1.703125 3.359375q1.296875 1.1875 3.625 1.1875q1.265625 0 2.359375 -0.3125q1.109375 -0.3125 1.734375 -0.765625l1.5625 2.734375q-0.71875 0.375 -1.578125 0.71875q-0.84375 0.328125 -1.875 0.578125q-1.015625 0.234375 -2.265625 0.375q-1.234375 0.15625 -2.71875 0.15625q-3.546875 0 -6.125 -0.828125q-2.578125 -0.84375 -4.265625 -2.234375q-1.6875 -1.390625 -2.5 -3.21875q-0.8125 -1.84375 -0.8125 -3.875zm16.4375 -1.640625q0 -2.546875 -0.640625 -3.6875q-0.625 -1.15625 -1.875 -1.15625q-0.640625 0 -1.1875 0.3125q-0.546875 0.3125 -0.9375 0.984375q-0.390625 0.65625 -0.625 1.703125q-0.234375 1.03125 -0.25 2.515625l5.515625 -0.671875zm13.128906 -7.9375l9.359375 0l0.9375 2.8125q2.0625 -1.578125 4.203125 -2.375q2.140625 -0.8125 4.5 -0.8125q1.359375 0 2.515625 0.453125q1.15625 0.453125 2.015625 1.390625q0.859375 0.9375 1.34375 2.421875q0.5 1.46875 0.5 3.515625l0 11.953125l-10.609375 0l0 -12.625q0 -1.015625 -0.453125 -1.484375q-0.4375 -0.46875 -1.296875 -0.46875q-0.578125 0 -1.265625 0.234375q-0.671875 0.234375 -1.140625 0.75l0 13.59375l-10.609375 0l0 -19.359375zm29.378906 9.6875q0 -2.28125 0.78125 -4.140625q0.796875 -1.859375 2.28125 -3.171875q1.484375 -1.3125 3.59375 -2.03125q2.125 -0.71875 4.765625 -0.71875q2.015625 0 3.609375 0.484375q1.609375 0.484375 2.765625 1.265625l0 -14.265625l10.59375 0l0 32.25l-9.765625 0l-0.796875 -2.421875q-0.546875 0.53125 -1.3125 1.046875q-0.75 0.5 -1.671875 0.890625q-0.921875 0.390625 -1.984375 0.625q-1.0625 0.234375 -2.234375 0.234375q-2.203125 0 -4.140625 -0.640625q-1.9375 -0.65625 -3.390625 -1.90625q-1.4375 -1.265625 -2.265625 -3.140625q-0.828125 -1.890625 -0.828125 -4.359375zm10.9375 -0.375q0 1.6875 0.3125 2.875q0.328125 1.1875 0.890625 1.953125q0.578125 0.75 1.359375 1.109375q0.78125 0.34375 1.71875 0.34375q0.734375 0 1.390625 -0.265625q0.65625 -0.265625 1.1875 -0.671875l0 -10.703125q-0.5 -0.4375 -1.109375 -0.671875q-0.609375 -0.234375 -1.203125 -0.234375q-0.96875 0 -1.8125 0.359375q-0.828125 0.359375 -1.4375 1.125q-0.609375 0.765625 -0.953125 1.953125q-0.34375 1.171875 -0.34375 2.828125zm21.660156 0.375q0 -2.296875 0.9375 -4.15625q0.953125 -1.859375 2.734375 -3.15625q1.796875 -1.3125 4.375 -2.03125q2.578125 -0.71875 5.859375 -0.71875q3.28125 0 5.859375 0.71875q2.578125 0.71875 4.359375 2.03125q1.796875 1.296875 2.734375 3.15625q0.953125 1.859375 0.953125 4.15625q0 2.28125 -0.953125 4.140625q-0.9375 1.859375 -2.734375 3.171875q-1.78125 1.296875 -4.359375 2.015625q-2.578125 0.71875 -5.859375 0.71875q-3.28125 0 -5.859375 -0.71875q-2.578125 -0.71875 -4.375 -2.015625q-1.78125 -1.3125 -2.734375 -3.171875q-0.9375 -1.859375 -0.9375 -4.140625zm13.90625 6.46875q0.71875 0 1.28125 -0.296875q0.578125 -0.296875 0.9375 -1.015625q0.375 -0.734375 0.5625 -1.984375q0.203125 -1.25 0.203125 -3.171875q0 -1.9375 -0.203125 -3.1875q-0.1875 -1.25 -0.5625 -1.96875q-0.359375 -0.734375 -0.9375 -1.03125q-0.5625 -0.296875 -1.28125 -0.296875q-0.75 0 -1.3125 0.296875q-0.546875 0.296875 -0.921875 1.03125q-0.359375 0.71875 -0.5625 1.96875q-0.1875 1.25 -0.1875 3.1875q0 1.921875 0.1875 3.171875q0.203125 1.25 0.5625 1.984375q0.375 0.71875 0.921875 1.015625q0.5625 0.296875 1.3125 0.296875z" fill-rule="nonzero"></path><path fill="#000000" d="m149.80315 159.55138l0 0c0 -5.279434 4.279831 -9.55925 9.55925 -9.55925l38.23584 0l0 0c2.535263 0 4.9667053 1.0071259 6.7593994 2.7998352c1.7927094 1.7927094 2.7998505 4.2241364 2.7998505 6.7594147l0 186.20433c0 5.279419 -4.279831 9.559265 -9.55925 9.559265l-38.23584 0c-5.279419 0 -9.55925 -4.279846 -9.55925 -9.559265z" fill-rule="nonzero"></path><path fill="#000000" d="m271.5825 223.97638l0 0c5.279419 0 9.559235 4.2798157 9.559235 9.55925l0 38.235825l0 0c0 2.5352783 -1.0071106 4.9667053 -2.7998352 6.75943c-1.7926941 1.7926941 -4.224121 2.7998352 -6.7593994 2.7998352l-186.20435 0c-5.2794266 0 -9.559242 -4.279846 -9.559242 -9.559265l0 -38.235825c0 -5.279434 4.2798157 -9.55925 9.559242 -9.55925z" fill-rule="nonzero"></path><path fill="#ff0000" d="m643.1181 315.02625l0 0c0 -21.404297 17.351624 -38.75589 38.75592 -38.75589l0 0c10.278687 0 20.136414 4.083191 27.404541 11.351318c7.2681274 7.268158 11.351379 17.125854 11.351379 27.404572l0 0c0 21.404297 -17.351624 38.75589 -38.75592 38.75589l0 0c-21.404297 0 -38.75592 -17.351593 -38.75592 -38.75589z" fill-rule="nonzero"></path><path stroke="#000000" stroke-width="2.0" stroke-linejoin="round" stroke-linecap="butt" d="m643.1181 315.02625l0 0c0 -21.404297 17.351624 -38.75589 38.75592 -38.75589l0 0c10.278687 0 20.136414 4.083191 27.404541 11.351318c7.2681274 7.268158 11.351379 17.125854 11.351379 27.404572l0 0c0 21.404297 -17.351624 38.75589 -38.75592 38.75589l0 0c-21.404297 0 -38.75592 -17.351593 -38.75592 -38.75589z" fill-rule="nonzero"></path><path fill="#ff0000" d="m774.2966 315.02625l0 0c0 -21.404297 17.351624 -38.75589 38.75592 -38.75589l0 0c10.278687 0 20.136414 4.083191 27.404541 11.351318c7.2681885 7.268158 11.351379 17.125854 11.351379 27.404572l0 0c0 21.404297 -17.351624 38.75589 -38.75592 38.75589l0 0c-21.404297 0 -38.75592 -17.351593 -38.75592 -38.75589z" fill-rule="nonzero"></path><path stroke="#000000" stroke-width="2.0" stroke-linejoin="round" stroke-linecap="butt" d="m774.2966 315.02625l0 0c0 -21.404297 17.351624 -38.75589 38.75592 -38.75589l0 0c10.278687 0 20.136414 4.083191 27.404541 11.351318c7.2681885 7.268158 11.351379 17.125854 11.351379 27.404572l0 0c0 21.404297 -17.351624 38.75589 -38.75592 38.75589l0 0c-21.404297 0 -38.75592 -17.351593 -38.75592 -38.75589z" fill-rule="nonzero"></path><path fill="#000000" d="m448.6601 312.63254l13.842529 0l0 0c7.6450195 0 13.842529 5.111725 13.842529 11.417328c0 6.305603 -6.19751 11.417328 -13.842529 11.417328l-13.842529 0z" fill-rule="nonzero"></path><path fill="#000000" d="m431.4685 335.4672l-13.842529 0l0 0c-7.6450195 0 -13.842499 -5.111725 -13.842499 -11.417328c0 -6.305603 6.1974792 -11.417328 13.842499 -11.417328l13.842529 0z" fill-rule="nonzero"></path><path fill="#000000" d="m424.47113 312.63254l27.685028 0l0 22.834656l-27.685028 0z" fill-rule="nonzero"></path><path fill="#000000" d="m542.66534 312.63254l13.842529 0l0 0c7.6450195 0 13.842529 5.111725 13.842529 11.417328c0 6.305603 -6.19751 11.417328 -13.842529 11.417328l-13.842529 0z" fill-rule="nonzero"></path><path fill="#000000" d="m525.47375 335.4672l-13.842529 0l0 0c-7.644989 0 -13.842499 -5.111725 -13.842499 -11.417328c0 -6.305603 6.19751 -11.417328 13.842499 -11.417328l13.842529 0z" fill-rule="nonzero"></path><path fill="#000000" d="m518.4764 312.63254l27.685059 0l0 22.834656l-27.685059 0z" fill-rule="nonzero"></path><path fill="#d9d9d9" d="m336.99213 66.11811l301.22833 0l0 33.322838l-301.22833 0z" fill-rule="nonzero"></path><path fill="#d9d9d9" d="m339.38058 405.86615l301.2283 0l0 13.2283325l-301.2283 0z" fill-rule="nonzero"></path></g></svg>

